<svg style="width:0; height:0; visibility: hidden;" xmlns="http://www.w3.org/2000/svg">

    <!-- instagram -->
	<symbol id="svg-insta" viewBox="0 0 14 14">
		<g>
            <path fill-rule="evenodd" clip-rule="evenodd" d="M7.00058 0.835449C5.26242 0.835449 5.04429 0.843049 4.36161 0.874116C3.68027 0.905317 3.2152 1.01318 2.80827 1.17145C2.38733 1.33492 2.03026 1.55359 1.67452 1.90946C1.31852 2.2652 1.09985 2.62227 0.935846 3.04307C0.777177 3.45014 0.669176 3.91535 0.638509 4.59642C0.607976 5.2791 0.599976 5.49736 0.599976 7.23552C0.599976 8.97367 0.607709 9.19114 0.638643 9.87381C0.669976 10.5551 0.777844 11.0202 0.935979 11.4272C1.09958 11.8481 1.31825 12.2052 1.67412 12.5609C2.02972 12.9169 2.38679 13.1361 2.80747 13.2996C3.21467 13.4578 3.67987 13.5657 4.36108 13.5969C5.04376 13.628 5.26176 13.6356 6.99978 13.6356C8.73806 13.6356 8.95553 13.628 9.6382 13.5969C10.3195 13.5657 10.7851 13.4578 11.1924 13.2996C11.6132 13.1361 11.9697 12.9169 12.3253 12.5609C12.6813 12.2052 12.9 11.8481 13.064 11.4273C13.2213 11.0202 13.3293 10.555 13.3613 9.87394C13.392 9.19127 13.4 8.97367 13.4 7.23552C13.4 5.49736 13.392 5.27923 13.3613 4.59655C13.3293 3.91521 13.2213 3.45014 13.064 3.04321C12.9 2.62227 12.6813 2.2652 12.3253 1.90946C11.9693 1.55346 11.6133 1.33479 11.192 1.17145C10.7839 1.01318 10.3186 0.905317 9.63727 0.874116C8.9546 0.843049 8.73726 0.835449 6.99858 0.835449H7.00058ZM6.42641 1.98878C6.59681 1.98851 6.78695 1.98878 7.00055 1.98878C8.70937 1.98878 8.9119 1.99491 9.58671 2.02558C10.2107 2.05411 10.5494 2.15838 10.775 2.24598C11.0737 2.36198 11.2866 2.50065 11.5105 2.72465C11.7345 2.94865 11.8731 3.16199 11.9894 3.46066C12.077 3.68599 12.1814 4.02466 12.2098 4.64867C12.2405 5.32334 12.2471 5.52601 12.2471 7.23403C12.2471 8.94205 12.2405 9.14472 12.2098 9.81939C12.1813 10.4434 12.077 10.7821 11.9894 11.0074C11.8734 11.3061 11.7345 11.5187 11.5105 11.7426C11.2865 11.9666 11.0738 12.1053 10.775 12.2213C10.5497 12.3093 10.2107 12.4133 9.58671 12.4418C8.91203 12.4725 8.70937 12.4792 7.00055 12.4792C5.2916 12.4792 5.08906 12.4725 4.41439 12.4418C3.79038 12.413 3.45171 12.3088 3.22598 12.2211C2.92731 12.1051 2.71397 11.9665 2.48997 11.7425C2.26597 11.5185 2.1273 11.3057 2.01103 11.0069C1.92343 10.7815 1.81903 10.4429 1.79063 9.81886C1.75996 9.14419 1.75383 8.94152 1.75383 7.23243C1.75383 5.52335 1.75996 5.32174 1.79063 4.64707C1.81916 4.02306 1.92343 3.68439 2.01103 3.45879C2.12703 3.16012 2.26597 2.94679 2.48997 2.72278C2.71397 2.49878 2.92731 2.36011 3.22598 2.24385C3.45158 2.15584 3.79038 2.05184 4.41439 2.02318C5.00479 1.99651 5.2336 1.98851 6.42641 1.98718V1.98878ZM10.4169 3.05146C9.99285 3.05146 9.64885 3.39506 9.64885 3.8192C9.64885 4.2432 9.99285 4.58721 10.4169 4.58721C10.8409 4.58721 11.1849 4.2432 11.1849 3.8192C11.1849 3.39519 10.8409 3.05146 10.4169 3.05146ZM7.00059 3.9488C5.1855 3.9488 3.71389 5.42041 3.71389 7.2355C3.71389 9.05058 5.1855 10.5215 7.00059 10.5215C8.81567 10.5215 10.2868 9.05058 10.2868 7.2355C10.2868 5.42041 8.81567 3.9488 7.00059 3.9488ZM7.00056 5.10214C8.17871 5.10214 9.13392 6.05722 9.13392 7.2355C9.13392 8.41364 8.17871 9.36885 7.00056 9.36885C5.82228 9.36885 4.86721 8.41364 4.86721 7.2355C4.86721 6.05722 5.82228 5.10214 7.00056 5.10214Z" fill="currentColor"/>
		</g>
	</symbol>

    <!-- ball -->
	<symbol id="svg-ball" viewBox="0 0 14 14">
		<g>
		    <path fill-rule="evenodd" clip-rule="evenodd" d="M13.4 7.22658C13.4 7.6594 13.3559 8.09161 13.2694 8.51293C13.185 8.92423 13.06 9.32804 12.8962 9.71405C12.7362 10.0932 12.5378 10.4586 12.3059 10.7994C12.0774 11.138 11.8143 11.4557 11.5252 11.7453C11.2355 12.0336 10.9167 12.2961 10.5783 12.5255C10.2364 12.7557 9.87047 12.9539 9.49106 13.1146C9.10448 13.2775 8.69975 13.4024 8.2888 13.4866C7.86693 13.5734 7.43313 13.6177 6.99969 13.6177C6.56592 13.6177 6.13215 13.5734 5.71088 13.4866C5.2993 13.4024 4.89459 13.2775 4.50832 13.1146C4.12893 12.9539 3.76264 12.7557 3.42076 12.5255C3.0823 12.2961 2.76354 12.0336 2.47446 11.7453C2.18508 11.4557 1.92193 11.138 1.69317 10.7994C1.46253 10.4586 1.26376 10.0932 1.10313 9.71405C0.939356 9.32804 0.814055 8.92421 0.72936 8.51293C0.643738 8.09161 0.599976 7.6594 0.599976 7.22658C0.599976 6.79343 0.643713 6.36029 0.729385 5.9399C0.81408 5.52859 0.939381 5.12417 1.10316 4.73877C1.26378 4.35931 1.46256 3.99358 1.69319 3.65279C1.92195 3.3139 2.18511 2.99682 2.47449 2.7069C2.76357 2.41854 3.08233 2.15674 3.42078 1.92769C3.76267 1.69643 4.12895 1.4983 4.50834 1.33726C4.89462 1.17402 5.2993 1.04889 5.7109 0.965272C6.13217 0.879149 6.56594 0.835449 6.99971 0.835449C7.43316 0.835449 7.86693 0.879149 8.28882 0.965272C8.69977 1.04892 9.10448 1.17404 9.49109 1.33726C9.87047 1.49827 10.2364 1.69643 10.5783 1.92769C10.9168 2.15674 11.2356 2.41854 11.5252 2.7069C11.8143 2.99682 12.0775 3.3139 12.3059 3.65279C12.5378 3.99358 12.7362 4.35934 12.8962 4.73877C13.06 5.12417 13.185 5.52859 13.2694 5.9399C13.3559 6.36029 13.4 6.79343 13.4 7.22658ZM4.66766 2.28998C3.14351 3.00869 2.00595 4.4111 1.65124 6.10126C1.79533 6.10251 4.07295 6.13122 6.69713 5.43498C5.75116 3.75669 4.74049 2.38706 4.66766 2.28998ZM7.14997 6.27541C4.33577 7.11671 1.6353 7.05617 1.53844 7.05245C1.53686 7.11111 1.53405 7.16789 1.53405 7.22657C1.53405 8.62866 2.06376 9.90688 2.93444 10.8734C2.93256 10.8706 4.42828 8.22081 7.3778 7.26839C7.44904 7.24468 7.52156 7.22344 7.59343 7.20286C7.45626 6.89268 7.30653 6.58186 7.14997 6.27541ZM10.6092 3.13039C9.64698 2.28311 8.3835 1.76917 6.99967 1.76917C6.55558 1.76917 6.12461 1.82285 5.71179 1.92208C5.79365 2.03194 6.82028 3.39191 7.75501 5.10575C9.81732 4.33372 10.5958 3.15035 10.6092 3.13039ZM7.96599 8.10722C7.95382 8.11125 7.94165 8.11473 7.92975 8.11908C4.70494 9.24167 3.65184 11.504 3.64045 11.5287C4.56833 12.2493 5.73214 12.684 6.99971 12.684C7.7566 12.684 8.47757 12.5301 9.13354 12.2515C9.0526 11.7746 8.73509 10.1032 7.96599 8.10722ZM10.0539 11.7528C11.2811 10.9258 12.1527 9.61265 12.3959 8.09159C12.2834 8.05539 10.7542 7.572 8.99006 7.85443C9.70697 9.82171 9.99825 11.4239 10.0539 11.7528ZM8.1757 5.91901C8.30256 6.17928 8.4254 6.44418 8.53883 6.7104C8.57916 6.80591 8.61854 6.89954 8.65697 6.99314C10.5346 6.75721 12.3843 7.15415 12.4634 7.17036C12.4509 5.87656 11.9874 4.68914 11.2206 3.75952C11.2102 3.77415 10.3336 5.03896 8.1757 5.91901Z" fill="currentColor"/>
		</g>
	</symbol>

    <!-- twitter -->
	<symbol id="svg-twitter" viewBox="0 0 12 11">
		<g>
            <path fill-rule="evenodd" clip-rule="evenodd" d="M5.6406 2.98905L5.66578 3.40428L5.2461 3.35344C3.71843 3.15853 2.38383 2.49756 1.25067 1.38746L0.696681 0.836651L0.553988 1.2434C0.251813 2.15012 0.444869 3.10769 1.0744 3.75172C1.41015 4.10762 1.33461 4.15847 0.755438 3.94662C0.553988 3.87883 0.377719 3.82798 0.360931 3.8534C0.302175 3.91272 0.503625 4.68386 0.663106 4.98892C0.881344 5.41262 1.32621 5.82785 1.81305 6.0736L2.22434 6.2685L1.73751 6.27697C1.26746 6.27697 1.25067 6.28545 1.30103 6.4634C1.46891 7.01421 2.13201 7.59892 2.87066 7.85314L3.39108 8.0311L2.93781 8.30226C2.26631 8.69207 1.4773 8.91239 0.688288 8.92934C0.310569 8.93782 0 8.97171 0 8.99713C0 9.08187 1.02404 9.55642 1.61999 9.74285C3.40786 10.2937 5.53148 10.0564 7.1263 9.11577C8.25945 8.44632 9.39261 7.1159 9.92142 5.82785C10.2068 5.14145 10.4922 3.8873 10.4922 3.28564C10.4922 2.89584 10.5174 2.84499 10.9874 2.37892C11.2644 2.10775 11.5246 1.81116 11.575 1.72642C11.6589 1.56542 11.6505 1.56542 11.2224 1.70948C10.509 1.9637 10.4083 1.9298 10.7608 1.54847C11.021 1.2773 11.3316 0.785807 11.3316 0.641749C11.3316 0.616327 11.2057 0.658697 11.063 0.734963C10.9119 0.819703 10.5761 0.946814 10.3243 1.02308L9.87105 1.16714L9.45976 0.887496C9.23313 0.734963 8.91417 0.565483 8.74629 0.514639C8.31821 0.396002 7.6635 0.41295 7.27738 0.548535C6.22816 0.929866 5.56506 1.91285 5.6406 2.98905Z" fill="currentColor"/>
		</g>
	</symbol>

	<!-- youtube -->
	<symbol id="svg-youtube" viewBox="0 0 14 11">
		<g>
            <path fill-rule="evenodd" clip-rule="evenodd" d="M12.0008 1.11011C12.5515 1.26125 12.9853 1.70656 13.1325 2.27206C13.4 3.29697 13.4 5.43545 13.4 5.43545C13.4 5.43545 13.4 7.57386 13.1325 8.59884C12.9853 9.16434 12.5515 9.60965 12.0008 9.76086C11.0027 10.0354 6.99998 10.0354 6.99998 10.0354C6.99998 10.0354 2.99728 10.0354 1.9991 9.76086C1.44834 9.60965 1.01459 9.16434 0.867394 8.59884C0.599976 7.57386 0.599976 5.43545 0.599976 5.43545C0.599976 5.43545 0.599976 3.29697 0.867394 2.27206C1.01459 1.70656 1.44834 1.26125 1.9991 1.11011C2.99728 0.835449 6.99998 0.835449 6.99998 0.835449C6.99998 0.835449 11.0027 0.835449 12.0008 1.11011ZM5.79999 3.63541V7.63541L8.99999 5.63548L5.79999 3.63541Z" fill="currentColor"/>
		</g>
	</symbol>
</svg>